<?xml version="1.0" standalone="no"?>
<!DOCTYPE svg PUBLIC "-//W3C//DTD SVG 20010904//EN"
 "http://www.w3.org/TR/2001/REC-SVG-20010904/DTD/svg10.dtd">
<svg version="1.0" xmlns="http://www.w3.org/2000/svg"
 width="512.000000pt" height="512.000000pt" viewBox="0 0 512.000000 512.000000"
 preserveAspectRatio="xMidYMid meet">
<metadata>
Created by potrace 1.11, written by Peter Selinger 2001-2013
</metadata>
<g transform="translate(0.000000,512.000000) scale(0.100000,-0.100000)"
fill="#000000" stroke="none">
<path d="M2408 5115 c-2 -1 -39 -5 -83 -9 -311 -24 -683 -136 -975 -293 -233
-126 -407 -257 -605 -457 -257 -258 -451 -557 -570 -876 -15 -41 -31 -84 -36
-95 -26 -63 -92 -327 -105 -420 -3 -27 -8 -59 -10 -70 -12 -61 -19 -190 -18
-345 0 -198 8 -285 41 -470 10 -55 44 -195 64 -258 267 -865 952 -1521 1819
-1742 90 -23 164 -38 225 -46 22 -3 46 -7 54 -10 54 -18 473 -26 606 -11 385
41 738 159 1065 355 320 192 609 470 820 789 72 109 177 307 225 423 56 138
121 350 140 459 3 19 8 37 10 40 5 10 18 101 32 226 10 91 10 408 1 505 -13
124 -22 177 -63 364 -3 10 -12 44 -21 75 -9 31 -17 63 -19 71 -8 42 -84 230
-139 345 -176 368 -439 689 -761 931 -55 41 -104 78 -110 82 -32 24 -203 126
-266 157 -260 131 -580 232 -829 260 -30 3 -68 9 -85 12 -31 5 -402 13 -407 8z"/>
</g>
</svg>
